<svg width="83" height="83" viewBox="0 0 83 83" fill="none" xmlns="http://www.w3.org/2000/svg">
<path d="M10.0801 45.8974C17.1875 46.742 23.8042 49.9533 28.8653 55.0144C33.9264 60.0755 37.1376 66.6921 37.9823 73.7996C41.5056 71.7683 44.4528 68.8722 46.5452 65.3848C48.6376 61.8975 49.8061 57.9341 49.9404 53.8694C56.6333 51.5149 62.4779 47.2287 66.7349 41.5527C70.9919 35.8766 73.4702 29.0657 73.8565 21.9812C73.8565 18.8097 72.5967 15.7681 70.3541 13.5256C68.1115 11.283 65.0699 10.0231 61.8984 10.0231C54.8139 10.4094 48.003 12.8878 42.327 17.1448C36.651 21.4018 32.3647 27.2463 30.0102 33.9393C25.9455 34.0735 21.9822 35.2421 18.4948 37.3345C15.0075 39.4269 12.1113 42.374 10.0801 45.8974Z" stroke="#00897B" stroke-width="6.28" stroke-linecap="round" stroke-linejoin="round"/>
<path d="M22.0404 49.8834C17.8918 52.2255 14.5373 55.7532 12.4068 60.0142C10.2762 64.2753 9.46681 69.0755 10.0823 73.7996C14.8063 74.415 19.6066 73.6056 23.8676 71.4751C28.1287 69.3446 31.6564 65.99 33.9984 61.8415" stroke="#00897B" stroke-width="6.28" stroke-linecap="round" stroke-linejoin="round"/>
<path d="M53.9274 33.9393C56.1289 33.9393 57.9135 32.1547 57.9135 29.9533C57.9135 27.7519 56.1289 25.9673 53.9274 25.9673C51.726 25.9673 49.9414 27.7519 49.9414 29.9533C49.9414 32.1547 51.726 33.9393 53.9274 33.9393Z" stroke="#00897B" stroke-width="6.28" stroke-linecap="round" stroke-linejoin="round"/>
<g filter="url(#filter0_f_93_1028)">
<path d="M10.0801 45.1376C17.1875 45.9822 23.8042 49.1935 28.8653 54.2546C33.9264 59.3157 37.1376 65.9323 37.9823 73.0397C41.5056 71.0085 44.4528 68.1123 46.5452 64.625C48.6376 61.1376 49.8061 57.1743 49.9404 53.1096C56.6333 50.7551 62.4779 46.4689 66.7349 40.7928C70.9919 35.1168 73.4702 28.3059 73.8565 21.2214C73.8565 18.0499 72.5967 15.0083 70.3541 12.7657C68.1115 10.5232 65.0699 9.26331 61.8984 9.26331C54.8139 9.64958 48.003 12.1279 42.327 16.3849C36.651 20.642 32.3647 26.4865 30.0102 33.1795C25.9455 33.3137 21.9822 34.4823 18.4948 36.5747C15.0075 38.6671 12.1113 41.6142 10.0801 45.1376Z" stroke="#00897B" stroke-opacity="0.74" stroke-width="6.28" stroke-linecap="round" stroke-linejoin="round"/>
</g>
<g filter="url(#filter1_f_93_1028)">
<path d="M22.0404 49.1236C17.8918 51.4657 14.5373 54.9933 12.4068 59.2544C10.2762 63.5154 9.46681 68.3157 10.0823 73.0398C14.8063 73.6552 19.6066 72.8458 23.8676 70.7153C28.1287 68.5848 31.6564 65.2302 33.9984 61.0817" stroke="#00897B" stroke-opacity="0.74" stroke-width="6.28" stroke-linecap="round" stroke-linejoin="round"/>
</g>
<g filter="url(#filter2_f_93_1028)">
<path d="M53.9274 33.1795C56.1289 33.1795 57.9135 31.3949 57.9135 29.1935C57.9135 26.9921 56.1289 25.2075 53.9274 25.2075C51.726 25.2075 49.9414 26.9921 49.9414 29.1935C49.9414 31.3949 51.726 33.1795 53.9274 33.1795Z" stroke="#00897B" stroke-opacity="0.74" stroke-width="6.28" stroke-linecap="round" stroke-linejoin="round"/>
</g>
<defs>
<filter id="filter0_f_93_1028" x="0.94043" y="0.123291" width="82.0557" height="82.0565" filterUnits="userSpaceOnUse" color-interpolation-filters="sRGB">
<feFlood flood-opacity="0" result="BackgroundImageFix"/>
<feBlend mode="normal" in="SourceGraphic" in2="BackgroundImageFix" result="shape"/>
<feGaussianBlur stdDeviation="3" result="effect1_foregroundBlur_93_1028"/>
</filter>
<filter id="filter1_f_93_1028" x="0.742188" y="39.983" width="42.3965" height="42.3972" filterUnits="userSpaceOnUse" color-interpolation-filters="sRGB">
<feFlood flood-opacity="0" result="BackgroundImageFix"/>
<feBlend mode="normal" in="SourceGraphic" in2="BackgroundImageFix" result="shape"/>
<feGaussianBlur stdDeviation="3" result="effect1_foregroundBlur_93_1028"/>
</filter>
<filter id="filter2_f_93_1028" x="40.8018" y="16.0674" width="26.252" height="26.2521" filterUnits="userSpaceOnUse" color-interpolation-filters="sRGB">
<feFlood flood-opacity="0" result="BackgroundImageFix"/>
<feBlend mode="normal" in="SourceGraphic" in2="BackgroundImageFix" result="shape"/>
<feGaussianBlur stdDeviation="3" result="effect1_foregroundBlur_93_1028"/>
</filter>
</defs>
</svg>
